<?xml version="1.0" standalone="no"?>
<!DOCTYPE svg PUBLIC "-//W3C//DTD SVG 20010904//EN"
 "http://www.w3.org/TR/2001/REC-SVG-20010904/DTD/svg10.dtd">
<svg version="1.0" xmlns="http://www.w3.org/2000/svg"
 width="3804.000000pt" height="3804.000000pt" viewBox="0 0 3804.000000 3804.000000"
 preserveAspectRatio="xMidYMid meet">
<metadata>
Created by potrace 1.14, written by Peter Selinger 2001-2017
</metadata>
<g transform="translate(0.000000,3804.000000) scale(0.100000,-0.100000)"
fill="#000000" stroke="none">
<path d="M18446 37839 c-362 -1131 -789 -2582 -1110 -3769 -862 -3198 -1353
-6054 -1491 -8665 -26 -511 -35 -788 -41 -1350 -31 -2642 299 -5308 971 -7864
46 -174 151 -562 234 -863 83 -301 151 -550 151 -555 -1 -12 -54 74 -328 522
-520 851 -823 1303 -1256 1879 -620 823 -1162 1444 -1930 2211 -429 429 -682
668 -1051 990 -1935 1693 -4235 3122 -7885 4901 -681 331 -2704 1296 -2973
1417 l-68 30 -21 -20 c-18 -19 -19 -22 -5 -50 9 -16 222 -341 474 -721 252
-381 640 -967 863 -1304 1355 -2049 2147 -3150 3084 -4288 675 -820 1275
-1480 2041 -2246 949 -949 1814 -1712 2825 -2491 554 -427 1504 -1101 1590
-1128 26 -8 25 -19 -3 -32 -19 -9 -49 -4 -148 23 -1873 518 -3951 728 -6351
644 -645 -23 -1286 -55 -2453 -125 -319 -19 -742 -44 -940 -55 -198 -11 -501
-34 -674 -50 -172 -17 -318 -30 -323 -30 -5 0 -8 -10 -6 -22 4 -29 13 -34 553
-294 1477 -710 2685 -1240 3840 -1684 2664 -1024 5132 -1585 7630 -1735 469
-28 780 -35 1545 -35 l765 0 -69 -43 c-37 -23 -181 -117 -320 -208 -973 -641
-1838 -1356 -2716 -2245 -1246 -1263 -2381 -2752 -3624 -4757 -214 -345 -197
-311 -147 -303 46 7 2743 1348 3251 1616 868 459 1284 700 1800 1045 1018 681
1928 1495 2684 2401 383 458 756 979 1036 1444 119 198 209 304 248 294 18 -5
22 -13 22 -43 -1 -78 351 -10160 356 -10218 l6 -63 379 0 379 0 0 5143 c0
5137 0 5142 20 5117 11 -14 79 -119 152 -235 549 -876 1121 -1594 1824 -2285
954 -939 1976 -1679 3453 -2499 738 -411 1613 -847 3020 -1508 250 -117 456
-211 458 -209 9 8 -467 784 -745 1216 -1821 2826 -3730 4816 -5957 6207 -99
62 -187 117 -195 123 -11 8 45 9 200 5 1112 -27 2102 -14 2940 40 2014 131
4077 547 6170 1245 1416 472 2932 1099 4875 2015 240 113 919 442 934 452 12
8 -19 15 -155 33 -101 14 -410 33 -959 60 -445 22 -1120 56 -1500 75 -3013
152 -3881 158 -5065 39 -847 -85 -1532 -201 -2675 -453 -247 -55 -451 -98
-452 -97 -2 1 93 76 209 167 516 399 1071 864 1573 1318 680 615 1480 1417
2140 2146 1595 1759 3149 3851 4890 6580 309 484 674 1069 670 1073 -11 12
-186 -67 -965 -433 -1522 -716 -2032 -962 -2950 -1422 -2269 -1135 -3941
-2113 -5340 -3121 -1858 -1340 -3424 -2857 -4696 -4547 -223 -297 -384 -522
-587 -820 -85 -126 -172 -245 -191 -264 l-35 -34 24 74 c13 41 65 189 115 329
811 2257 1284 4457 1424 6625 35 532 41 744 41 1445 0 698 -6 914 -41 1460
-159 2539 -722 5140 -1904 8795 -391 1209 -1400 4138 -1440 4179 -4 4 -38 -83
-74 -195z"/>
</g>
</svg>
